<svg xmlns="http://www.w3.org/2000/svg" viewBox="0 0 512 512">
  <defs>
    <linearGradient id="bg" x1="0" y1="0" x2="0" y2="1">
      <stop offset="0" stop-color="#f7a26f"/>
      <stop offset=".46" stop-color="#e2743f"/>
      <stop offset=".47" stop-color="#155f73"/>
      <stop offset="1" stop-color="#0a2a36"/>
    </linearGradient>
    <linearGradient id="body" x1="0" y1="0" x2="0" y2="1">
      <stop offset="0" stop-color="#1c4f63"/>
      <stop offset=".45" stop-color="#8fd1d6"/>
      <stop offset=".62" stop-color="#e9f6f5"/>
      <stop offset="1" stop-color="#ffffff"/>
    </linearGradient>
  </defs>
  <rect width="512" height="512" fill="url(#bg)"/>
  <circle cx="256" cy="236" r="62" fill="#ffd9a8" opacity=".9"/>
  <path d="M0 238 Q64 222 128 238 T256 238 T384 238 T512 238 V250 H0Z" fill="#0f4a5c" opacity=".55"/>
  <!-- line from the top -->
  
  <!-- minnow lure -->
  <g transform="rotate(-18 256 300)">
    <path d="M112 300 C96 220 90 120 110 -60" fill="none" stroke="#ffffff" stroke-width="5" stroke-linecap="round" opacity=".92"/>
    <circle cx="112" cy="302" r="8" fill="none" stroke="#e8eef0" stroke-width="5"/>
    <path d="M118 302 C140 250 250 238 350 262 C372 267 388 276 396 290 L424 270 L416 302 L424 334 L396 314 C388 328 372 336 350 340 C250 362 140 352 118 302Z" fill="url(#body)" stroke="#0a2a36" stroke-width="7" stroke-linejoin="round"/>
    <path d="M118 306 L70 342 L88 352 L132 322Z" fill="#cdeef0" stroke="#0a2a36" stroke-width="6" stroke-linejoin="round"/>
    <circle cx="160" cy="292" r="15" fill="#f9d44a" stroke="#0a2a36" stroke-width="5"/>
    <circle cx="160" cy="292" r="6" fill="#0a2a36"/>
    <path d="M200 280 C250 268 310 268 360 280" stroke="#ffffff" stroke-width="7" stroke-linecap="round" fill="none" opacity=".75"/>
    <!-- treble hooks -->
    <g fill="none" stroke="#e8eef0" stroke-width="7" stroke-linecap="round">
      <path d="M230 350 V380 M214 392 C214 408 246 408 246 392 M230 380 V402"/>
      <path d="M320 344 V374 M304 386 C304 402 336 402 336 386 M320 374 V396"/>
    </g>
  </g>
</svg>
